<svg width="23" height="22" viewBox="0 0 23 22" fill="none" xmlns="http://www.w3.org/2000/svg">
<path d="M10.5611 1.31391C10.7677 0.895364 11.3645 0.895364 11.5711 1.31391L14.2451 6.73203C14.3271 6.89824 14.4857 7.01344 14.6691 7.04009L20.6484 7.90893C21.1102 7.97604 21.2947 8.54367 20.9604 8.86946L16.6338 13.0869C16.5011 13.2163 16.4405 13.4027 16.4719 13.5853L17.4932 19.5404C17.5721 20.0004 17.0893 20.3513 16.6762 20.1341L11.3282 17.3224C11.1641 17.2362 10.9681 17.2362 10.8041 17.3224L5.45605 20.1341C5.04292 20.3513 4.56007 20.0004 4.63897 19.5404L5.66035 13.5853C5.69168 13.4027 5.63112 13.2163 5.4984 13.0869L1.17177 8.86946C0.837537 8.54367 1.02197 7.97604 1.48386 7.90893L7.46312 7.04009C7.64653 7.01344 7.80509 6.89824 7.88712 6.73203L10.5611 1.31391Z" stroke="#44DD8A" stroke-width="2" stroke-linejoin="round"/>
</svg>
